name C:\Users\u0101727\Documents\MyRepositories\upper-imu-dc\Results\main_tracking\Case_73\kinematics.mot
datacolumns 43
datarows 12
range 3.14000000 3.36000000
endheader 
time	clav_prot	clav_elev	scapula_abduction	scapula_elevation	scapula_upward_rot	scapula_winging	plane_elv	shoulder_elv	axial_rot	TrapeziusScapula_M/activation	TrapeziusScapula_S/activation	TrapeziusScapula_I/activation	TrapeziusClavicle_S/activation	SerratusAnterior_I/activation	SerratusAnterior_M/activation	SerratusAnterior_S/activation	Rhomboideus_S/activation	Rhomboideus_I/activation	LevatorScapulae/activation	Coracobrachialis/activation	DeltoideusClavicle_A/activation	DeltoideusScapula_P/activation	DeltoideusScapula_M/activation	LatissimusDorsi_S/activation	LatissimusDorsi_M/activation	LatissimusDorsi_I/activation	PectoralisMajorClavicle_S/activation	PectoralisMajorThorax_I/activation	PectoralisMajorThorax_M/activation	TeresMajor/activation	Infraspinatus_I/activation	Infraspinatus_S/activation	PectoralisMinor/activation	TeresMinor/activation	Subscapularis_S/activation	Subscapularis_M/activation	Subscapularis_I/activation	Supraspinatus_P/activation	Supraspinatus_A/activation	TRIlong/activation	BIC_long/activation	BIC_brevis/activation	
          3.14000000	        -19.02102831	         -6.94764510	         -8.75585790	         -4.36190412	          7.45247212	          7.28978354	        -21.74747016	         19.32195283	         35.74057944	          0.01000000	          0.04994512	          0.01000000	          0.03089745	          0.02971249	          0.05929454	          0.01000000	          0.01137498	          0.01000000	          0.03630446	          0.01000000	          0.03067612	          0.01000000	          0.05133777	          0.01000000	          0.01000000	          0.01000000	          0.02610447	          0.01000000	          0.01000000	          0.01000000	          0.01720309	          0.02036878	          0.01000000	          0.01000000	          0.01000000	          0.01000000	          0.01000000	          0.01000001	          0.02125983	          0.01000000	          0.03489307	          0.01000000	
          3.16000000	        -19.05174981	         -6.91632789	         -8.84939517	         -4.32083636	          7.38742994	          7.29900798	        -21.52944039	         19.80037758	         34.64435866	          0.01000000	          0.05075070	          0.01000000	          0.03129374	          0.03072100	          0.06024566	          0.01000000	          0.01136506	          0.01000000	          0.03648906	          0.01000000	          0.03164000	          0.01000000	          0.05218228	          0.01000000	          0.01000000	          0.01000000	          0.02677596	          0.01000000	          0.01000000	          0.01000000	          0.01782652	          0.02089689	          0.01000000	          0.01000000	          0.01000000	          0.01000000	          0.01000000	          0.01000002	          0.02175933	          0.01000000	          0.03574615	          0.01000000	
          3.18000000	        -19.08913779	         -6.87669623	         -8.93352527	         -4.28604081	          7.36639523	          7.29595177	        -21.34529717	         20.33370789	         33.48837028	          0.01000000	          0.05143375	          0.01000000	          0.03159531	          0.03165016	          0.06106163	          0.01000000	          0.01133274	          0.01000000	          0.03658652	          0.01000000	          0.03254872	          0.01000000	          0.05277215	          0.01000000	          0.01000000	          0.01000000	          0.02742012	          0.01000000	          0.01000000	          0.01000000	          0.01841298	          0.02136468	          0.01000000	          0.01000000	          0.01000000	          0.01000000	          0.01000000	          0.01000003	          0.02221608	          0.01000000	          0.03654071	          0.01000000	
          3.20000000	        -19.13503112	         -6.83092777	         -9.00940156	         -4.26024173	          7.39255896	          7.28087420	        -21.19929249	         20.91829472	         32.27951537	          0.01000000	          0.05204870	          0.01000000	          0.03179855	          0.03251514	          0.06171710	          0.01000000	          0.01127846	          0.01000000	          0.03656062	          0.01000000	          0.03342727	          0.01000000	          0.05316493	          0.01000000	          0.01000000	          0.01000000	          0.02804719	          0.01000000	          0.01000000	          0.01000000	          0.01889202	          0.02173604	          0.01000000	          0.01000000	          0.01000000	          0.01000000	          0.01000000	          0.01000005	          0.02265100	          0.01000000	          0.03731257	          0.01000000	
          3.22000000	        -19.19217663	         -6.78120792	         -9.08030772	         -4.24585378	          7.46788890	          7.25442327	        -21.09153855	         21.54926711	         31.03256142	          0.01000000	          0.05267313	          0.01000000	          0.03190322	          0.03333989	          0.06218969	          0.01000000	          0.01120443	          0.01000000	          0.03637429	          0.01000000	          0.03428822	          0.01000000	          0.05342700	          0.01000000	          0.01000000	          0.01000000	          0.02865221	          0.01000000	          0.01000000	          0.01000000	          0.01920007	          0.02197526	          0.01000000	          0.01000000	          0.01000000	          0.01000000	          0.01000000	          0.01000011	          0.02307761	          0.01000000	          0.03808584	          0.01000000	
          3.24000000	        -19.26442873	         -6.72947174	         -9.15173789	         -4.24495416	          7.59372483	          7.21742421	        -21.01813310	         22.22029362	         29.77009874	          0.01000000	          0.05339503	          0.01000000	          0.03191891	          0.03416132	          0.06248592	          0.01000000	          0.01111479	          0.01000000	          0.03599935	          0.01000000	          0.03514181	          0.01000000	          0.05364238	          0.01000000	          0.01000000	          0.01000000	          0.02922199	          0.01000000	          0.01000000	          0.01000000	          0.01930563	          0.02206720	          0.01000000	          0.01000000	          0.01000000	          0.01000000	          0.01000000	          0.01000061	          0.02350936	          0.01000000	          0.03887977	          0.01000000	
          3.26000000	        -19.35622970	         -6.67701417	         -9.23036837	         -4.25905271	          7.77115681	          7.17055906	        -20.97183457	         22.92383001	         28.51924936	          0.01000000	          0.05428863	          0.01000000	          0.03187043	          0.03503796	          0.06266686	          0.01000000	          0.01101630	          0.01000000	          0.03543982	          0.01000000	          0.03599887	          0.01000000	          0.05390831	          0.01000000	          0.01000000	          0.01000000	          0.02974597	          0.01000000	          0.01000000	          0.01000000	          0.01921901	          0.02202195	          0.01000000	          0.01000000	          0.01000000	          0.01000000	          0.01000000	          0.01033195	          0.02396003	          0.01000000	          0.03970714	          0.01000000	
          3.28000000	        -19.47140249	         -6.62394989	         -9.32204565	         -4.28861124	          8.00105949	          7.11397482	        -20.94312971	         23.65182829	         27.30627238	          0.01000000	          0.05538088	          0.01000000	          0.03178923	          0.03599608	          0.06282856	          0.01000000	          0.01092172	          0.01000000	          0.03475319	          0.01000000	          0.03687707	          0.01000000	          0.05431499	          0.01000000	          0.01000000	          0.01000000	          0.03022840	          0.01000000	          0.01000000	          0.01000000	          0.01900608	          0.02189140	          0.01000000	          0.01000000	          0.01000000	          0.01000000	          0.01000000	          0.01065953	          0.02444625	          0.01000000	          0.04058808	          0.01000000	
          3.30000000	        -19.61191471	         -6.56878362	         -9.42987012	         -4.33256448	          8.28382121	          7.04701449	        -20.92153196	         24.39664680	         26.15126239	          0.01000000	          0.05664864	          0.01000000	          0.03170318	          0.03703983	          0.06307307	          0.01000000	          0.01084433	          0.01000000	          0.03402942	          0.01000000	          0.03777481	          0.01000000	          0.05490845	          0.01000000	          0.01000000	          0.01000000	          0.03067334	          0.01000000	          0.01000000	          0.01000000	          0.01874484	          0.02172830	          0.01000000	          0.01000000	          0.01000000	          0.01000000	          0.01000000	          0.01101734	          0.02497087	          0.01000000	          0.04152772	          0.01000001	
          3.32000000	        -19.77736044	         -6.50847233	         -9.55346252	         -4.38825867	          8.61903560	          6.96825812	        -20.89683894	         25.15184834	         25.06492589	          0.01000000	          0.05802333	          0.01000000	          0.03162443	          0.03812791	          0.06346188	          0.01000000	          0.01079472	          0.01000000	          0.03335820	          0.01000000	          0.03866366	          0.01000000	          0.05568102	          0.01000000	          0.01000000	          0.01000000	          0.03107190	          0.01000000	          0.01000000	          0.01000000	          0.01850856	          0.02157827	          0.01000000	          0.01000000	          0.01000000	          0.01000000	          0.01000000	          0.01139321	          0.02551794	          0.01000000	          0.04250870	          0.01000003	
          3.34000000	        -19.96532879	         -6.43909269	         -9.68962230	         -4.45193721	          9.00527005	          6.87590449	        -20.86021646	         25.91274409	         24.04801587	          0.01000000	          0.05941350	          0.01000000	          0.03154715	          0.03918985	          0.06400182	          0.01000000	          0.01077554	          0.01000000	          0.03280045	          0.01000000	          0.03950051	          0.01000000	          0.05658318	          0.01000000	          0.01000000	          0.01000000	          0.03140325	          0.01000000	          0.01000000	          0.01000000	          0.01835068	          0.02147421	          0.01000000	          0.01000000	          0.01000000	          0.01000000	          0.01000000	          0.01177747	          0.02606145	          0.01000000	          0.04348885	          0.01000005	
          3.36000000	        -20.17220554	         -6.35678546	         -9.83362977	         -4.51950067	          9.43994915	          6.76829131	        -20.80502885	         26.67660784	         23.09280137	          0.01000000	          0.06071321	          0.01000000	          0.03145405	          0.04014033	          0.06466197	          0.01000000	          0.01078170	          0.01000000	          0.03238257	          0.01000000	          0.04023820	          0.01000000	          0.05755534	          0.01000000	          0.01000000	          0.01000000	          0.03163900	          0.01000000	          0.01000000	          0.01000000	          0.01830177	          0.02143869	          0.01000000	          0.01000000	          0.01000000	          0.01000000	          0.01000000	          0.01215703	          0.02657125	          0.01000000	          0.04440982	          0.01010173	
